<svg width="26" height="32" viewBox="0 0 26 32" fill="none" xmlns="http://www.w3.org/2000/svg">
<path fill-rule="evenodd" clip-rule="evenodd" d="M12.9939 0C20.7348 0 25.9878 5.99342 25.9878 12.4601C25.9878 15.0562 25.425 17.7572 24.1114 20.5899C16.4965 20.5899 14.6167 26.0763 14.2605 29.531L14.237 29.7592C14.1177 30.993 14.0472 31.2563 14.0287 32H11.9583C11.9295 30.9016 11.8631 30.7872 11.7441 29.695L11.739 29.6341C11.4098 26.1878 9.5703 20.5899 1.87811 20.5899C0.562761 17.7572 0 15.0562 0 12.4601C0 5.99342 5.25467 0 12.9939 0Z" fill="#FF9900"/>
<mask id="mask0_87_138" style="mask-type:alpha" maskUnits="userSpaceOnUse" x="11" y="5" width="4" height="14">
<mask id="path-2-inside-1_87_138" fill="white">
<path d="M12.9941 15.8938C13.7232 15.8939 14.3143 16.4873 14.3145 17.22C14.3145 17.9528 13.7233 18.547 12.9941 18.5471C12.2649 18.5471 11.6738 17.9528 11.6738 17.22C11.674 16.4872 12.265 15.8938 12.9941 15.8938ZM12.9932 5.07153C13.8376 5.07161 14.5027 5.79236 14.4346 6.63403L13.7207 15.4114C13.5007 15.3043 13.254 15.2434 12.9932 15.2434C12.7319 15.2435 12.4849 15.304 12.2646 15.4114L11.5527 6.63403C11.4846 5.79237 12.1487 5.07167 12.9932 5.07153Z"/>
</mask>
<path d="M12.9941 15.8938C13.7232 15.8939 14.3143 16.4873 14.3145 17.22C14.3145 17.9528 13.7233 18.547 12.9941 18.5471C12.2649 18.5471 11.6738 17.9528 11.6738 17.22C11.674 16.4872 12.265 15.8938 12.9941 15.8938ZM12.9932 5.07153C13.8376 5.07161 14.5027 5.79236 14.4346 6.63403L13.7207 15.4114C13.5007 15.3043 13.254 15.2434 12.9932 15.2434C12.7319 15.2435 12.4849 15.304 12.2646 15.4114L11.5527 6.63403C11.4846 5.79237 12.1487 5.07167 12.9932 5.07153Z" fill="black"/>
<path d="M12.9941 15.8938L12.9963 -1.1062H12.9941V15.8938ZM14.3145 17.22L31.3145 17.22L31.3145 17.2161L14.3145 17.22ZM12.9941 18.5471L12.9941 35.5471L12.9963 35.5471L12.9941 18.5471ZM11.6738 17.22L-5.32617 17.2161V17.22H11.6738ZM12.9932 5.07153L12.9947 -11.9285L12.9904 -11.9285L12.9932 5.07153ZM14.4346 6.63403L31.3786 8.0121L31.3791 8.00585L14.4346 6.63403ZM13.7207 15.4114L6.28428 30.6986L28.6487 41.5777L30.6648 16.7894L13.7207 15.4114ZM12.9932 15.2434L12.9946 -1.75659L12.99 -1.75659L12.9932 15.2434ZM12.2646 15.4114L-4.67971 16.7857L-2.66694 41.6016L19.7133 30.6927L12.2646 15.4114ZM11.5527 6.63403L-5.39178 8.00642L-5.39162 8.00836L11.5527 6.63403ZM12.9941 15.8938L12.992 32.8938C4.26434 32.8927 -2.68361 25.8073 -2.68555 17.2238L14.3145 17.22L31.3145 17.2161C31.3122 7.16735 23.1821 -1.1049 12.9963 -1.1062L12.9941 15.8938ZM14.3145 17.22H-2.68555C-2.68555 8.64617 4.25199 1.54823 12.992 1.54712L12.9941 18.5471L12.9963 35.5471C23.1947 35.5458 31.3145 27.2594 31.3145 17.22H14.3145ZM12.9941 18.5471V1.54712C21.7379 1.54712 28.6738 8.64839 28.6738 17.22H11.6738H-5.32617C-5.32617 27.2573 2.79185 35.5471 12.9941 35.5471V18.5471ZM11.6738 17.22L28.6738 17.2238C28.6719 25.805 21.7255 32.8938 12.9941 32.8938V15.8938V-1.1062C2.80441 -1.1062 -5.32391 7.16946 -5.32617 17.2161L11.6738 17.22ZM12.9932 5.07153L12.9916 22.0715C3.91338 22.0707 -3.2436 14.3237 -2.50999 5.26221L14.4346 6.63403L31.3791 8.00585C32.249 -2.73899 23.7619 -11.9275 12.9947 -11.9285L12.9932 5.07153ZM14.4346 6.63403L-2.50948 5.25596L-3.22335 14.0333L13.7207 15.4114L30.6648 16.7894L31.3786 8.0121L14.4346 6.63403ZM13.7207 15.4114L21.1571 0.124139C18.7123 -1.06513 15.9316 -1.75635 12.9946 -1.75659L12.9932 15.2434L12.9918 32.2434C10.5764 32.2432 8.28906 31.6738 6.28428 30.6986L13.7207 15.4114ZM12.9932 15.2434L12.99 -1.75659C10.0738 -1.75605 7.28726 -1.07449 4.81602 0.130081L12.2646 15.4114L19.7133 30.6927C17.6826 31.6825 15.3901 32.243 12.9963 32.2434L12.9932 15.2434ZM12.2646 15.4114L29.209 14.0371L28.4971 5.25971L11.5527 6.63403L-5.39162 8.00836L-4.67971 16.7857L12.2646 15.4114ZM11.5527 6.63403L28.4972 5.26165C29.2301 14.31 22.0868 22.0701 12.9959 22.0715L12.9932 5.07153L12.9904 -11.9285C2.21062 -11.9267 -6.26097 -2.72527 -5.39178 8.00642L11.5527 6.63403Z" fill="white" mask="url(#path-2-inside-1_87_138)"/>
</mask>
<g mask="url(#mask0_87_138)">
<rect x="10.4023" y="2.44189" width="5.30092" height="18.0748" fill="white" stroke="white"/>
</g>
</svg>
